<svg width="331" height="223" viewBox="0 0 331 223" fill="none" xmlns="http://www.w3.org/2000/svg">
    <path d="M16.9197 222.299C13.3542 222.299 9.98009 221.688 6.79193 220.465C3.60377 219.243 1.33979 217.513 0 215.267L4.09047 212.594C5.01465 214.242 6.76459 215.598 9.34027 216.652C11.9214 217.707 14.4643 218.236 16.9798 218.236C19.8727 218.236 22.4538 217.741 24.7178 216.751C26.9818 215.762 28.1137 214.393 28.1137 212.642C28.1137 211.32 27.4302 210.266 26.0685 209.474C24.7069 208.682 22.8311 208.007 20.4414 207.447L10.6308 205.171C7.77626 204.478 5.48495 203.406 3.74595 201.952C2.00696 200.501 1.13746 198.685 1.13746 196.508C1.13746 193.573 2.73974 191.18 5.94977 189.329C9.1598 187.483 12.8347 186.558 16.9853 186.558C20.1734 186.558 23.1593 187.01 25.9482 187.918C28.7372 188.826 30.9465 190.203 32.5815 192.049L28.3051 194.722C27.1732 193.4 25.5709 192.389 23.4928 191.679C21.4148 190.969 19.2657 190.616 17.0454 190.616C14.6994 190.616 12.4737 191.128 10.3793 192.152C8.28484 193.177 7.23488 194.562 7.23488 196.31C7.23488 198.655 9.32933 200.286 13.5237 201.211L23.6514 203.587C30.6949 205.235 34.2166 208.076 34.2166 212.099C34.2166 215.069 32.505 217.513 29.0926 219.424C25.6748 221.339 21.6171 222.294 16.9251 222.294L16.9197 222.299Z" fill="#1C3578"/>
    <path d="M57.2339 221.805V191.215H44.5906V186.959H75.5972V191.215H63.0196V221.805H57.2339Z" fill="#1C3578"/>
    <path d="M123.398 217.074C118.952 220.59 113.588 222.346 107.299 222.346C101.01 222.346 95.64 220.59 91.1996 217.074C86.7536 213.558 84.5334 209.328 84.5334 204.378C84.5334 199.429 86.7536 195.203 91.1996 191.709C95.6455 188.21 101.01 186.463 107.299 186.463C113.588 186.463 118.958 188.214 123.398 191.709C127.844 195.208 130.064 199.429 130.064 204.378C130.064 209.328 127.844 213.558 123.398 217.074ZM95.4432 213.932C98.7352 216.57 102.683 217.892 107.299 217.892C111.914 217.892 115.863 216.57 119.155 213.932C122.447 211.294 124.093 208.11 124.093 204.378C124.093 200.647 122.447 197.458 119.155 194.799C115.863 192.144 111.909 190.814 107.299 190.814C102.689 190.814 98.7352 192.144 95.4432 194.799C92.1511 197.454 90.505 200.647 90.505 204.378C90.505 208.11 92.1511 211.29 95.4432 213.932Z" fill="#1C3578"/>
    <path d="M145.916 221.805V186.959H163.022C166.669 186.959 169.781 187.975 172.362 190.002C174.943 192.033 176.228 194.499 176.228 197.4C176.228 199.577 175.419 201.518 173.806 203.214C172.192 204.914 170.125 206.058 167.61 206.652L181.133 221.796H174.15L161.507 207.543H151.631V221.796H145.905L145.916 221.805ZM151.636 203.489H162.644C164.826 203.489 166.669 202.895 168.179 201.707C169.688 200.52 170.442 199.082 170.442 197.4C170.442 195.717 169.688 194.232 168.179 193.044C166.669 191.857 164.821 191.263 162.644 191.263H151.636V203.489Z" fill="#1C3578"/>
    <path d="M190.567 221.804L211.195 186.119H212.015L232.708 221.804H226.419L222.706 215.073H200.504L196.791 221.804H190.562H190.567ZM202.833 210.916H220.316L211.572 195.324L202.828 210.916H202.833Z" fill="#1C3578"/>
    <path d="M264.535 222.346C258.284 222.346 252.931 220.59 248.463 217.074C243.995 213.558 241.764 209.327 241.764 204.378C241.764 199.429 243.984 195.203 248.43 191.709C252.876 188.21 258.241 186.463 264.529 186.463C268.598 186.463 272.393 187.263 275.915 188.864C279.437 190.465 282.226 192.651 284.282 195.423L279.059 197.652C277.588 195.573 275.57 193.917 272.989 192.677C270.408 191.438 267.592 190.822 264.529 190.822C259.876 190.822 255.911 192.144 252.641 194.782C249.371 197.424 247.736 200.621 247.736 204.383C247.736 208.144 249.36 211.402 252.608 214.057C255.856 216.712 259.832 218.042 264.524 218.042C268.844 218.042 272.552 216.953 275.658 214.776C278.759 212.598 280.503 209.874 280.88 206.608H264.529V203.341H287.043V204.581C286.961 209.5 284.736 213.687 280.377 217.151C276.013 220.616 270.731 222.35 264.529 222.35L264.535 222.346Z" fill="#1C3578"/>
    <path d="M302.017 221.805V186.959H329.19V191.215H307.808V201.858H327.369V205.374H307.808V217.549H329.19V221.805H302.017Z" fill="#1C3578"/>
    <path d="M31.0758 124.011C41.5282 124.011 50.4897 128.404 56.09 135.873L46.7543 144.267C43.3931 139.874 37.3472 136.486 31.5984 136.486C20.4749 136.486 14.8746 144.574 14.8746 152.741C14.8746 160.908 20.4749 168.916 31.5984 168.916C38.9151 168.916 43.5471 165.221 46.7543 160.982L56.09 169.376C50.3412 176.692 41.3796 181.47 31.0043 181.47C17.5647 181.47 1.80911 171.686 1.80911 152.735C1.80911 133.785 17.6362 124 31.0813 124L31.0758 124.011Z" fill="#0082E0"/>
    <path d="M111.495 125.784V136.647H64.8282V125.784H111.495ZM111.495 147.351V158.134H64.8282V147.351H111.495ZM111.495 168.844V179.707H65.0538V168.844H111.495Z" fill="#0082E0"/>
    <path d="M122.392 125.784H135.012L167.117 163.373V125.784H179.66V179.707H167.117L135.012 142.118V179.707H122.392V125.784Z" fill="#0082E0"/>
    <path d="M190.855 125.784H203.475V179.707H190.855V125.784Z" fill="#0082E0"/>
    <path d="M269.401 125.784V136.567H246.555V179.707H233.935V136.494H211.088V125.784H269.401Z" fill="#0082E0"/>
    <path d="M277.016 125.784H289.636V147.277H318.457V125.784H331V179.707H318.457V158.14H289.636V179.707H277.016V125.784Z" fill="#0082E0"/>
    <path d="M193.431 84.5225V61.4434H123.37C122.06 61.4434 121 62.4221 121 63.6273V84.5225C121 90.8379 126.555 95.9579 133.407 95.9579H134.022C134.059 92.9995 136.683 90.6003 139.903 90.6003C143.122 90.6003 145.745 92.9995 145.783 95.9579H168.736C168.772 92.9995 171.397 90.6003 174.616 90.6003C177.835 90.6003 180.458 92.9995 180.496 95.9579H181.024C187.875 95.9579 193.432 90.8379 193.432 84.5225H193.431Z" fill="#0082E0"/>
    <path d="M193.489 25.3847V59.9258H123.428C122.121 59.9258 121.059 58.9471 121.059 57.7419V11.434C121.059 5.12 126.616 0 133.467 0H166.02C166.81 0.00279629 167.593 0.0335548 168.367 0.102064C182.445 1.22477 193.491 12.1177 193.491 25.3861L193.489 25.3847Z" fill="#0082E0"/>
    <path d="M168.611 47.7999C168.508 47.2882 168.203 46.8715 167.82 46.5038C167.384 46.0788 166.862 45.7488 166.297 45.4804C165.442 45.0749 164.536 44.7813 163.618 44.5268C162.796 44.3003 161.962 44.1144 161.114 43.9941C160.757 44.4919 160.394 44.998 160.03 45.5055C160.378 45.5587 160.727 45.6104 161.071 45.6691C161.957 45.8173 162.837 45.9837 163.697 46.2382C164.475 46.4661 165.237 46.7345 165.933 47.133C166.238 47.3077 166.517 47.5119 166.716 47.7929C166.88 48.0292 166.918 48.2822 166.765 48.5297C166.675 48.6737 166.551 48.8024 166.42 48.9198C166.164 49.1449 165.856 49.3001 165.543 49.4469C164.823 49.795 164.066 50.0467 163.288 50.255C162.617 50.4326 161.942 50.5738 161.259 50.6913C160.798 50.7709 160.332 50.8353 159.868 50.8954C159.477 50.9443 159.082 50.9863 158.691 51.024C158.349 51.0576 158.004 51.0855 157.662 51.1079C157.394 51.1275 157.124 51.1373 156.857 51.1498C156.417 51.1694 155.986 51.1988 155.546 51.2016C155.535 51.2016 155.525 51.2016 155.514 51.2016C155.013 51.2086 154.513 51.2086 154.011 51.1946C153.65 51.1862 153.29 51.1708 152.929 51.147C152.566 51.1247 152.208 51.1135 151.846 51.0827C151.269 51.0366 150.694 50.9877 150.118 50.9191C149.563 50.8534 149.007 50.7737 148.455 50.6801C147.682 50.5472 146.917 50.3753 146.167 50.1572C145.338 49.9139 144.526 49.6189 143.774 49.2008C143.488 49.0372 143.223 48.8555 143.045 48.5828C142.913 48.3815 142.877 48.1732 142.971 47.9481C143.05 47.7663 143.177 47.6153 143.329 47.4853C143.642 47.2197 144.001 47.0197 144.379 46.8519C145.441 46.378 146.556 46.0634 147.709 45.8537C148.373 45.7292 149.041 45.6258 149.705 45.5125C149.343 45.0134 148.973 44.5059 148.607 43.9955C148.302 44.0403 148.003 44.0934 147.704 44.1507C146.815 44.3213 145.943 44.5492 145.09 44.8372C144.321 45.0945 143.569 45.3797 142.88 45.7894C142.346 46.1081 141.885 46.494 141.54 46.9876C140.964 47.8069 140.981 48.7283 141.627 49.5168C141.93 49.8845 142.302 50.1837 142.709 50.4466C143.438 50.9164 144.244 51.2463 145.08 51.5203C145.985 51.8154 146.911 52.0405 147.848 52.2054C148.425 52.3089 149.001 52.3928 149.581 52.4725C149.96 52.5242 150.339 52.562 150.722 52.6011C151.154 52.6459 151.586 52.6836 152.022 52.7186C152.313 52.7409 152.606 52.7479 152.899 52.7605C153.334 52.7787 153.766 52.8094 154.202 52.8122C154.795 52.8164 155.388 52.8011 155.98 52.7899C156.285 52.7857 156.59 52.7745 156.89 52.7605C157.4 52.7297 157.911 52.7032 158.418 52.6612C158.855 52.6277 159.286 52.5899 159.718 52.5354C160.396 52.4473 161.079 52.3578 161.755 52.2432C162.635 52.0992 163.503 51.8978 164.351 51.6406C165.278 51.3554 166.165 51.01 166.974 50.4983C167.549 50.1334 168.053 49.7014 168.389 49.1295C168.637 48.7073 168.711 48.2641 168.615 47.7943L168.611 47.7999Z" fill="white"/>
    <path d="M142.431 30.1057C142.665 30.9054 142.991 31.6758 143.323 32.4378C143.715 33.3298 144.138 34.2022 144.596 35.0621C145.188 36.189 145.822 37.2921 146.494 38.3813C147.369 39.7948 148.301 41.1874 149.264 42.5534C149.278 42.5729 149.293 42.5939 149.307 42.6135C149.844 43.3741 150.393 44.1277 150.944 44.8827C151.315 45.3874 151.686 45.8935 152.062 46.3955C152.227 46.6178 152.394 46.8387 152.561 47.0582C153.192 47.8929 153.837 48.7192 154.475 49.5455C154.565 49.6629 154.653 49.779 154.744 49.9006C154.776 49.9412 154.806 49.9817 154.838 50.0236C154.89 49.9789 154.935 49.9412 154.975 49.902C154.988 49.888 155.003 49.8726 155.015 49.8573C155.138 49.7161 155.263 49.5804 155.381 49.435C156.185 48.4367 156.945 47.4091 157.698 46.3773C157.808 46.2263 157.918 46.0739 158.028 45.9229C158.761 44.9148 159.485 43.9012 160.208 42.8903C160.274 42.798 160.34 42.7044 160.407 42.6121C160.741 42.1437 161.076 41.6739 161.399 41.1944C161.929 40.4016 162.448 39.6019 162.971 38.8049C163.646 37.7689 164.297 36.7231 164.893 35.6465C165.289 34.9363 165.662 34.2134 166.017 33.4836C166.688 32.0994 167.219 30.6691 167.551 29.1787C167.745 28.3328 167.841 27.48 167.873 26.6145C167.882 26.4216 167.856 26.2244 167.856 26.0273C167.847 25.489 167.778 24.9535 167.674 24.4236C167.46 23.2967 167.044 22.2313 166.448 21.2331C165.708 19.9929 164.752 18.9038 163.625 17.9432C162.715 17.1743 161.707 16.5297 160.595 16.0236C159.612 15.5776 158.596 15.2588 157.541 15.0645V21.4749C159.332 22.3572 160.624 24.144 160.624 26.1923C160.629 29.0864 157.969 31.529 154.697 31.4451C151.705 31.3738 149.053 29.0179 149.144 25.9616C149.202 24.0154 150.466 22.3656 152.191 21.5127V15.1288C152.095 15.1441 152.001 15.1623 151.905 15.1861C150.848 15.421 149.836 15.7691 148.87 16.2277C148.174 16.5619 147.511 16.9408 146.887 17.377C146.183 17.8705 145.537 18.4284 144.951 19.0436C144.264 19.765 143.689 20.5536 143.216 21.4022C142.817 22.1237 142.512 22.8773 142.289 23.6602C142.063 24.4712 141.938 25.2989 141.902 26.1336C141.878 26.7585 141.911 27.3807 141.988 28.0029C142.079 28.7159 142.231 29.4136 142.433 30.1043L142.431 30.1057Z" fill="white"/>
    <path d="M205.362 84.5208V36.8972C205.362 22.6515 192.009 8.04021 179.182 1.89258C188.273 6.24987 195.073 15.0779 195.073 25.3821V84.5208C195.073 89.466 192.048 93.7751 187.613 95.9562H192.954C199.807 95.9562 205.362 90.8362 205.362 84.5208Z" fill="#1C3578"/>
    <path d="M207.012 36.8983V59.9244H216.165C217.474 59.9244 218.536 58.9457 218.536 57.7391V48.4498C218.536 28.4535 201.529 9.6021 182.766 2.20312C194.965 8.90862 207.012 22.8791 207.012 36.8969V36.8983Z" fill="#1C3578"/>
    <path d="M219.793 66.3746H218.529V63.6287C218.529 62.4221 217.467 61.4434 216.158 61.4434H207.006V84.5225C207.006 89.4678 203.981 93.7768 199.545 95.9579H206.121C212.974 95.9579 218.529 90.8379 218.529 84.5225V83.8207H219.793C220.459 83.8207 220.999 83.3243 220.999 82.7091V67.4847C220.999 66.871 220.461 66.3732 219.793 66.3732V66.3746Z" fill="#1C3578"/>
    <path d="M139.899 92.0352C137.535 92.0352 135.613 93.7856 135.578 95.957C135.578 95.9779 135.578 95.9975 135.578 96.0185C135.578 98.2177 137.514 100 139.899 100C142.284 100 144.22 98.2163 144.22 96.0185C144.22 95.9975 144.22 95.9779 144.22 95.957C144.186 93.787 142.263 92.0352 139.899 92.0352Z" fill="#1C3578"/>
    <path d="M174.611 92.0352C172.247 92.0352 170.325 93.7856 170.29 95.957C170.29 95.9779 170.29 95.9975 170.29 96.0185C170.29 98.2177 172.226 100 174.611 100C176.996 100 178.932 98.2163 178.932 96.0185C178.932 95.9975 178.932 95.9779 178.932 95.957C178.898 93.787 176.975 92.0352 174.611 92.0352Z" fill="#1C3578"/>
</svg>
