<svg width="14" height="14" viewBox="0 0 14 14" fill="none" xmlns="http://www.w3.org/2000/svg">
<path d="M4.78125 6.79953C5.29576 7.86204 6.15492 8.719 7.21875 9.23078C7.29722 9.26794 7.38402 9.28402 7.47059 9.27745C7.55717 9.27087 7.64054 9.24187 7.7125 9.19328L9.275 8.14953C9.34403 8.10271 9.4238 8.07414 9.50687 8.06649C9.58993 8.05884 9.67357 8.07236 9.75 8.10578L12.675 9.36203C12.775 9.40364 12.8585 9.47696 12.9127 9.57069C12.9669 9.66443 12.9888 9.77338 12.975 9.88078C12.8823 10.6044 12.5291 11.2694 11.9815 11.7514C11.4339 12.2334 10.7295 12.4994 10 12.4995C7.74566 12.4995 5.58365 11.604 3.98959 10.0099C2.39553 8.41588 1.5 6.25387 1.5 3.99953C1.50016 3.27003 1.76613 2.56558 2.24814 2.018C2.73015 1.47043 3.39516 1.11724 4.11875 1.02453C4.22615 1.01074 4.33511 1.03263 4.42884 1.08684C4.52258 1.14105 4.59589 1.22456 4.6375 1.32453L5.89375 4.25578C5.92642 4.331 5.94008 4.4131 5.93355 4.49484C5.92701 4.57659 5.90046 4.65547 5.85625 4.72453L4.8125 6.31203C4.76603 6.38383 4.73876 6.46636 4.73329 6.55171C4.72782 6.63706 4.74433 6.72239 4.78125 6.79953V6.79953Z" stroke="#191C1F" stroke-width="1.5" stroke-linecap="round" stroke-linejoin="round"/>
</svg>

