<svg width="24" height="24" viewBox="0 0 24 24" fill="none" xmlns="http://www.w3.org/2000/svg">
    <path d="M21.8194 6.19868L16.3337 1.5667C13.8651 -0.522233 10.1349 -0.522233 7.66629 1.5667L2.18057 6.19868C0.795429 7.3664 0 9.04014 0 10.8047V19.0566C0 21.7813 2.304 24 5.14286 24H18.8571C21.696 24 24 21.7813 24 19.0566V10.8047C24 9.05311 23.2046 7.3664 21.8194 6.19868ZM15.0857 22.0408H8.91429V17.824C8.91429 16.2152 10.2994 14.9047 12 14.9047C13.7006 14.9047 15.0857 16.2152 15.0857 17.824V22.0408ZM21.9429 19.0437C21.9429 20.6914 20.5577 22.0408 18.8571 22.0408H17.1429V17.824C17.1429 15.1383 14.8389 12.9585 12 12.9585C9.16114 12.9585 6.85714 15.1383 6.85714 17.824V22.0408H5.14286C3.44229 22.0408 2.05714 20.7044 2.05714 19.0437V10.7917C2.05714 9.58508 2.60571 8.4433 3.552 7.63887L9.03771 3.00689C10.7246 1.57967 13.2754 1.57967 14.9623 3.00689L20.448 7.63887C21.3943 8.4433 21.9429 9.58508 21.9429 10.7917V19.0437Z" fill="#0082E0"/>
</svg>
