<svg width="212" height="48" viewBox="0 0 212 48" fill="none" xmlns="http://www.w3.org/2000/svg">
    <path d="M60.1328 47.9757C58.3988 47.9757 56.7579 47.6872 55.2074 47.1103C53.6569 46.5333 52.5559 45.7167 51.9043 44.6563L53.8936 43.3947C54.3431 44.1728 55.1941 44.8127 56.4467 45.3104C57.702 45.8081 58.9387 46.058 60.1621 46.058C61.5689 46.058 62.8242 45.8244 63.9253 45.3571C65.0263 44.8899 65.5768 44.2439 65.5768 43.4171C65.5768 42.7935 65.2444 42.2957 64.5822 41.9219C63.9199 41.5482 63.0077 41.2292 61.8455 40.9651L57.0744 39.8905C55.6861 39.5634 54.5718 39.0576 53.7261 38.371C52.8803 37.6864 52.4575 36.8291 52.4575 35.8012C52.4575 34.4158 53.2367 33.2863 54.7978 32.4127C56.359 31.5413 58.1462 31.1045 60.1647 31.1045C61.7152 31.1045 63.1673 31.3178 64.5237 31.7464C65.88 32.1751 66.9544 32.8251 67.7496 33.6966L65.6699 34.9582C65.1194 34.3345 64.3401 33.8571 63.3295 33.5219C62.3189 33.1867 61.2737 33.0202 60.194 33.0202C59.0531 33.0202 57.9706 33.2619 56.952 33.7454C55.9334 34.2289 55.4228 34.883 55.4228 35.7078C55.4228 36.8149 56.4414 37.5848 58.4813 38.0216L63.4067 39.1429C66.8321 39.921 68.5448 41.2617 68.5448 43.1611C68.5448 44.5628 67.7124 45.7167 66.0529 46.6187C64.3907 47.5226 62.4173 47.9736 60.1355 47.9736L60.1328 47.9757Z" fill="#141D3F"/>
    <path d="M79.7386 47.7426V33.303H73.5898V31.2939H88.6692V33.303H82.5524V47.7426H79.7386Z" fill="#141D3F"/>
    <path d="M111.917 45.5093C109.755 47.169 107.146 47.9978 104.087 47.9978C101.029 47.9978 98.4171 47.169 96.2576 45.5093C94.0954 43.8496 93.0156 41.8527 93.0156 39.5165C93.0156 37.1803 94.0954 35.1854 96.2576 33.5359C98.4197 31.8843 101.029 31.0596 104.087 31.0596C107.146 31.0596 109.757 31.8864 111.917 33.5359C114.079 35.1875 115.159 37.1803 115.159 39.5165C115.159 41.8527 114.079 43.8496 111.917 45.5093ZM98.3213 44.0263C99.9224 45.2716 101.843 45.8952 104.087 45.8952C106.332 45.8952 108.252 45.2716 109.853 44.0263C111.454 42.781 112.254 41.2778 112.254 39.5165C112.254 37.7552 111.454 36.2499 109.853 34.9945C108.252 33.7411 106.329 33.1134 104.087 33.1134C101.845 33.1134 99.9224 33.7411 98.3213 34.9945C96.7203 36.2479 95.9198 37.7552 95.9198 39.5165C95.9198 41.2778 96.7203 42.779 98.3213 44.0263Z" fill="#141D3F"/>
    <path d="M122.869 47.7426V31.2939H131.188C132.961 31.2939 134.475 31.7734 135.73 32.7302C136.985 33.689 137.61 34.853 137.61 36.2222C137.61 37.2501 137.217 38.1663 136.432 38.9667C135.648 39.7691 134.642 40.3095 133.419 40.5898L139.996 47.7385H136.6L130.451 41.0104H125.648V47.7385H122.863L122.869 47.7426ZM125.65 39.0967H131.004C132.065 39.0967 132.961 38.8164 133.695 38.2557C134.429 37.695 134.796 37.0165 134.796 36.2222C134.796 35.4279 134.429 34.7271 133.695 34.1664C132.961 33.6057 132.063 33.3254 131.004 33.3254H125.65V39.0967Z" fill="#141D3F"/>
    <path d="M144.583 47.7422L154.614 30.8975H155.013L165.077 47.7422H162.018L160.213 44.565H149.415L147.609 47.7422H144.58H144.583ZM150.548 42.6027H159.05L154.798 35.2427L150.545 42.6027H150.548Z" fill="#141D3F"/>
    <path d="M180.555 47.9978C177.515 47.9978 174.911 47.1689 172.738 45.5093C170.566 43.8496 169.48 41.8527 169.48 39.5165C169.48 37.1803 170.56 35.1854 172.722 33.5359C174.885 31.8843 177.494 31.0596 180.552 31.0596C182.531 31.0596 184.376 31.4374 186.089 32.1931C187.802 32.9488 189.158 33.9808 190.158 35.289L187.618 36.3413C186.903 35.3601 185.922 34.578 184.666 33.993C183.411 33.4079 182.041 33.1174 180.552 33.1174C178.289 33.1174 176.361 33.7411 174.77 34.9864C173.18 36.2337 172.385 37.743 172.385 39.5185C172.385 41.294 173.175 42.8318 174.754 44.0852C176.334 45.3386 178.267 45.9663 180.549 45.9663C182.65 45.9663 184.453 45.4524 185.964 44.4245C187.472 43.3965 188.32 42.1106 188.504 40.5688H180.552V39.0269H191.501V39.612C191.461 41.9339 190.379 43.9105 188.259 45.5458C186.137 47.1811 183.568 47.9998 180.552 47.9998L180.555 47.9978Z" fill="#141D3F"/>
    <path d="M198.783 47.7426V31.2939H211.998V33.303H201.6V38.3268H211.113V39.9865H201.6V45.7335H211.998V47.7426H198.783Z" fill="#141D3F"/>
    <path d="M66.1375 1.41649C71.2208 1.41649 75.5791 3.49011 78.3026 7.0158L73.7624 10.9782C72.1278 8.90456 69.1875 7.30514 66.3917 7.30514C60.982 7.30514 58.2584 11.1228 58.2584 14.9781C58.2584 18.8333 60.982 22.6135 66.3917 22.6135C69.95 22.6135 72.2027 20.8694 73.7624 18.8681L78.3026 22.8305C75.5068 26.2839 71.1486 28.5396 66.1027 28.5396C59.5667 28.5396 51.9043 23.9209 51.9043 14.9754C51.9043 6.02989 59.6015 1.41113 66.1402 1.41113L66.1375 1.41649Z" fill="#0082E0"/>
    <path d="M105.248 2.25293V7.38072H82.5527V2.25293H105.248ZM105.248 12.4335V17.5238H82.5527V12.4335H105.248ZM105.248 22.5792V27.707H82.6624V22.5792H105.248Z" fill="#0082E0"/>
    <path d="M110.547 2.25293H116.684L132.298 19.9966V2.25293H138.398V27.707H132.298L116.684 9.96337V27.707H110.547V2.25293Z" fill="#0082E0"/>
    <path d="M143.842 2.25293H149.979V27.707H143.842V2.25293Z" fill="#0082E0"/>
    <path d="M182.041 2.25293V7.34321H170.93V27.707H164.793V7.30839H153.682V2.25293H182.041Z" fill="#0082E0"/>
    <path d="M185.746 2.25293H191.883V12.3987H205.9V2.25293H212V27.707H205.9V17.5265H191.883V27.707H185.746V2.25293Z" fill="#0082E0"/>
    <path d="M31.8939 39.8983V29.0039H1.04345C0.466945 29.0039 0 29.4659 0 30.0348V39.8983C0 42.8794 2.44629 45.2963 5.46306 45.2963H5.73428C5.75031 43.8997 6.90599 42.7672 8.32352 42.7672C9.74106 42.7672 10.8961 43.8997 10.9128 45.2963H21.0199C21.0359 43.8997 22.1916 42.7672 23.6091 42.7672C25.0267 42.7672 26.1817 43.8997 26.1984 45.2963H26.4309C29.4476 45.2963 31.8946 42.8794 31.8946 39.8983H31.8939Z" fill="#0082E0"/>
    <path d="M31.9193 11.9827V28.2875H1.06884C0.493004 28.2875 0.0253906 27.8256 0.0253906 27.2566V5.39734C0.0253906 2.41686 2.47235 0 5.48912 0H19.8235C20.1715 0.00131997 20.5162 0.0158393 20.8569 0.0481785C27.0561 0.578145 31.92 5.72007 31.92 11.9833L31.9193 11.9827Z" fill="#0082E0"/>
    <path d="M20.9647 22.5641C20.9193 22.3225 20.785 22.1258 20.6167 21.9522C20.4243 21.7516 20.1945 21.5959 19.946 21.4691C19.5692 21.2777 19.1704 21.1392 18.7662 21.019C18.4042 20.9121 18.0368 20.8243 17.6633 20.7676C17.5064 21.0025 17.3467 21.2414 17.1864 21.481C17.3394 21.5061 17.493 21.5305 17.6446 21.5582C18.0348 21.6282 18.4222 21.7067 18.801 21.8269C19.1437 21.9344 19.479 22.0611 19.7856 22.2492C19.9199 22.3317 20.0428 22.4281 20.1303 22.5608C20.2025 22.6723 20.2192 22.7917 20.1517 22.9086C20.1123 22.9765 20.0575 23.0373 20.0001 23.0927C19.8872 23.199 19.7516 23.2722 19.614 23.3415C19.2967 23.5058 18.9633 23.6246 18.6206 23.723C18.3254 23.8068 18.0281 23.8735 17.7275 23.9289C17.5244 23.9665 17.3193 23.9969 17.1149 24.0253C16.9426 24.0484 16.7689 24.0682 16.5965 24.086C16.4462 24.1018 16.2939 24.115 16.1436 24.1256C16.0254 24.1348 15.9065 24.1394 15.7889 24.1454C15.5952 24.1546 15.4054 24.1685 15.2117 24.1698C15.207 24.1698 15.2024 24.1698 15.1977 24.1698C14.9772 24.1731 14.7568 24.1731 14.5357 24.1665C14.3767 24.1625 14.2184 24.1553 14.0594 24.1441C13.8997 24.1335 13.7421 24.1282 13.5824 24.1137C13.3286 24.0919 13.0754 24.0688 12.8215 24.0365C12.577 24.0055 12.3325 23.9678 12.0894 23.9236C11.7487 23.8609 11.412 23.7797 11.082 23.6768C10.7166 23.5619 10.3592 23.4227 10.0279 23.2254C9.90229 23.1481 9.78539 23.0623 9.70723 22.9336C9.64911 22.8386 9.63308 22.7403 9.6745 22.634C9.70924 22.5482 9.76535 22.4769 9.83215 22.4156C9.96977 22.2902 10.1281 22.1958 10.2944 22.1166C10.762 21.8928 11.253 21.7444 11.7607 21.6454C12.0533 21.5866 12.3472 21.5378 12.6398 21.4843C12.4802 21.2487 12.3172 21.0091 12.1562 20.7682C12.0219 20.7894 11.8903 20.8144 11.7587 20.8415C11.3673 20.922 10.9832 21.0296 10.6077 21.1655C10.269 21.287 9.9377 21.4216 9.63442 21.615C9.39928 21.7655 9.1962 21.9476 9.04456 22.1806C8.79071 22.5674 8.79806 23.0023 9.08264 23.3745C9.21624 23.5481 9.3799 23.6893 9.55893 23.8134C9.88025 24.0352 10.235 24.1909 10.603 24.3203C11.0019 24.4595 11.4093 24.5658 11.8222 24.6437C12.076 24.6925 12.3299 24.7321 12.5851 24.7697C12.7521 24.7941 12.9191 24.812 13.0874 24.8304C13.2778 24.8516 13.4682 24.8694 13.6599 24.8859C13.7882 24.8964 13.9171 24.8997 14.046 24.9057C14.2377 24.9143 14.4281 24.9288 14.6198 24.9301C14.881 24.9321 15.1422 24.9248 15.4028 24.9195C15.537 24.9176 15.6713 24.9123 15.8036 24.9057C16.028 24.8912 16.2532 24.8786 16.4763 24.8588C16.6687 24.843 16.8584 24.8252 17.0488 24.7994C17.3474 24.7578 17.648 24.7156 17.9459 24.6615C18.3334 24.5935 18.7155 24.4985 19.0889 24.377C19.4971 24.2424 19.8878 24.0794 20.2439 23.8378C20.4971 23.6656 20.7189 23.4616 20.8672 23.1917C20.9761 22.9924 21.0088 22.7832 20.9667 22.5614L20.9647 22.5641Z" fill="white"/>
    <path d="M9.43579 14.2114C9.53867 14.5889 9.68229 14.9526 9.82859 15.3123C10.0009 15.7333 10.1873 16.1452 10.3891 16.5511C10.6496 17.083 10.9288 17.6037 11.2247 18.1179C11.6102 18.7851 12.0204 19.4425 12.4446 20.0873C12.4506 20.0965 12.4572 20.1064 12.4633 20.1156C12.6997 20.4747 12.9416 20.8304 13.1841 21.1868C13.3477 21.425 13.5107 21.664 13.6764 21.9009C13.7492 22.0058 13.8227 22.1101 13.8962 22.2137C14.1741 22.6077 14.458 22.9978 14.7392 23.3878C14.7786 23.4433 14.8174 23.4981 14.8574 23.5555C14.8715 23.5746 14.8848 23.5938 14.8989 23.6136C14.9216 23.5924 14.9416 23.5746 14.959 23.5561C14.965 23.5495 14.9717 23.5423 14.977 23.535C15.0311 23.4684 15.0859 23.4043 15.138 23.3357C15.4921 22.8645 15.8267 22.3794 16.1581 21.8923C16.2068 21.821 16.2549 21.7491 16.3037 21.6778C16.6264 21.202 16.945 20.7235 17.2636 20.2463C17.2924 20.2028 17.3218 20.1585 17.3512 20.115C17.4981 19.8939 17.6458 19.6721 17.788 19.4458C18.0212 19.0715 18.2496 18.694 18.4801 18.3178C18.7774 17.8288 19.064 17.3351 19.3265 16.8269C19.5008 16.4917 19.6652 16.1505 19.8215 15.8059C20.1168 15.1526 20.3506 14.4774 20.4969 13.7739C20.5824 13.3746 20.6245 12.972 20.6385 12.5634C20.6425 12.4724 20.6311 12.3793 20.6311 12.2863C20.6271 12.0322 20.5971 11.7794 20.551 11.5293C20.4568 10.9973 20.2737 10.4944 20.0112 10.0232C19.6852 9.43777 19.2644 8.92364 18.768 8.47023C18.3672 8.10724 17.9236 7.80299 17.434 7.56408C17.0011 7.35354 16.5535 7.20307 16.0893 7.11133V10.1374C16.8775 10.5538 17.4467 11.3973 17.4467 12.3641C17.4487 13.7303 16.2776 14.8833 14.8367 14.8437C13.5194 14.81 12.3517 13.698 12.3918 12.2552C12.4172 11.3365 12.9736 10.5578 13.7332 10.1552V7.14169C13.6911 7.14895 13.6497 7.15753 13.6076 7.16875C13.142 7.27962 12.6964 7.44396 12.2709 7.66043C11.9642 7.81817 11.6723 7.99702 11.3978 8.20294C11.0878 8.43591 10.8032 8.69925 10.5454 8.98964C10.2428 9.33019 9.98958 9.70242 9.78116 10.103C9.60547 10.4436 9.4712 10.7993 9.373 11.1689C9.27346 11.5517 9.21868 11.9424 9.20265 12.3364C9.19196 12.6314 9.20666 12.9251 9.24073 13.2188C9.28081 13.5554 9.34761 13.8847 9.43646 14.2108L9.43579 14.2114Z" fill="white"/>
    <path d="M37.1473 39.8976V17.4172C37.1473 10.6927 31.2672 3.7955 25.6191 0.893555C29.6224 2.95038 32.6168 7.11758 32.6168 11.9816V39.8976C32.6168 42.2319 31.2847 44.266 29.3315 45.2956H31.6836C34.701 45.2956 37.1473 42.8787 37.1473 39.8976Z" fill="#141D3F"/>
    <path d="M37.8739 17.4176V28.2869H41.9041C42.4806 28.2869 42.9482 27.8249 42.9482 27.2554V22.8704C42.9482 13.4314 35.4593 4.53267 27.1973 1.04004C32.5688 4.20532 37.8739 10.8 37.8739 17.417V17.4176Z" fill="#141D3F"/>
    <path d="M43.5039 31.3317H42.9475V30.0355C42.9475 29.4659 42.4799 29.0039 41.9034 29.0039H37.8732V39.8983C37.8732 42.2326 36.5412 44.2667 34.5879 45.2963H37.4838C40.5012 45.2963 42.9475 42.8794 42.9475 39.8983V39.5669H43.5039C43.7972 39.5669 44.035 39.3326 44.035 39.0423V31.8557C44.035 31.566 43.7979 31.331 43.5039 31.331V31.3317Z" fill="#141D3F"/>
    <path d="M8.32244 43.4443C7.28167 43.4443 6.43529 44.2706 6.41992 45.2956C6.41992 45.3055 6.41992 45.3147 6.41992 45.3246C6.41992 46.3628 7.27232 47.2043 8.32244 47.2043C9.37257 47.2043 10.225 46.3621 10.225 45.3246C10.225 45.3147 10.225 45.3055 10.225 45.2956C10.2103 44.2713 9.36322 43.4443 8.32244 43.4443Z" fill="#141D3F"/>
    <path d="M23.6076 43.4443C22.5668 43.4443 21.7204 44.2706 21.7051 45.2956C21.7051 45.3055 21.7051 45.3147 21.7051 45.3246C21.7051 46.3628 22.5575 47.2043 23.6076 47.2043C24.6577 47.2043 25.5101 46.3621 25.5101 45.3246C25.5101 45.3147 25.5101 45.3055 25.5101 45.2956C25.4954 44.2713 24.6484 43.4443 23.6076 43.4443Z" fill="#141D3F"/>
</svg>
