<svg width="587" height="159" viewBox="0 0 587 159" fill="none" xmlns="http://www.w3.org/2000/svg">
<rect width="586.237" height="158.669" fill="#0082E0"/>
<path d="M206.562 123.633C202.624 123.633 198.897 123.022 195.376 121.8C191.855 120.578 189.355 118.848 187.875 116.601L192.393 113.929C193.413 115.577 195.346 116.933 198.191 117.987C201.042 119.042 203.85 119.571 206.628 119.571C209.823 119.571 212.674 119.076 215.174 118.086C217.675 117.096 218.925 115.728 218.925 113.976C218.925 112.655 218.17 111.601 216.666 110.809C215.162 110.017 213.091 109.341 210.451 108.782L199.616 106.505C196.463 105.812 193.933 104.741 192.012 103.286C190.092 101.836 189.131 100.02 189.131 97.8423C189.131 94.9073 190.901 92.5146 194.446 90.6641C197.991 88.8178 202.05 87.8926 206.634 87.8926C210.155 87.8926 213.453 88.3445 216.533 89.2525C219.614 90.1606 222.054 91.5377 223.859 93.3839L219.136 96.0564C217.886 94.7352 216.117 93.7239 213.822 93.0138C211.526 92.3037 209.153 91.9508 206.701 91.9508C204.11 91.9508 201.652 92.4629 199.338 93.4872C197.025 94.5114 195.866 95.8972 195.866 97.6444C195.866 99.9898 198.179 101.621 202.811 102.546L213.997 104.922C221.776 106.57 225.665 109.41 225.665 113.434C225.665 116.403 223.775 118.848 220.006 120.759C216.231 122.674 211.75 123.629 206.568 123.629L206.562 123.633Z" fill="#141D3E"/>
<path d="M251.087 123.139V92.5491H237.123V88.293H271.368V92.5491H257.477V123.139H251.087Z" fill="#141D3E"/>
<path d="M324.162 118.408C319.252 121.924 313.327 123.68 306.381 123.68C299.436 123.68 293.505 121.924 288.601 118.408C283.69 114.892 281.238 110.662 281.238 105.712C281.238 100.763 283.69 96.5373 288.601 93.0429C293.511 89.5441 299.436 87.7969 306.381 87.7969C313.327 87.7969 319.258 89.5484 324.162 93.0429C329.073 96.5416 331.525 100.763 331.525 105.712C331.525 110.662 329.073 114.892 324.162 118.408ZM293.287 115.266C296.923 117.904 301.284 119.226 306.381 119.226C311.479 119.226 315.84 117.904 319.476 115.266C323.111 112.628 324.929 109.444 324.929 105.712C324.929 101.981 323.111 98.7924 319.476 96.1328C315.84 93.4775 311.473 92.1477 306.381 92.1477C301.29 92.1477 296.923 93.4775 293.287 96.1328C289.652 98.7881 287.834 101.981 287.834 105.712C287.834 109.444 289.652 112.624 293.287 115.266Z" fill="#141D3E"/>
<path d="M349.032 123.139V88.293H367.924C371.952 88.293 375.389 89.3086 378.24 91.3355C381.09 93.3668 382.51 95.8327 382.51 98.7333C382.51 100.911 381.616 102.852 379.834 104.547C378.052 106.247 375.769 107.392 372.991 107.986L387.927 123.13H380.215L366.251 108.877H355.343V123.13H349.02L349.032 123.139ZM355.349 104.823H367.507C369.917 104.823 371.952 104.229 373.619 103.041C375.286 101.853 376.12 100.416 376.12 98.7333C376.12 97.0506 375.286 95.5659 373.619 94.3781C371.952 93.1904 369.911 92.5965 367.507 92.5965H355.349V104.823Z" fill="#141D3E"/>
<path d="M398.346 123.138L421.128 87.4531H422.034L444.888 123.138H437.942L433.841 116.407H409.32L405.219 123.138H398.34H398.346ZM411.893 112.25H431.202L421.544 96.6583L411.887 112.25H411.893Z" fill="#141D3E"/>
<path d="M480.038 123.68C473.135 123.68 467.222 121.924 462.287 118.408C457.353 114.892 454.889 110.662 454.889 105.712C454.889 100.763 457.341 96.5373 462.251 93.0429C467.161 89.5441 473.086 87.7969 480.032 87.7969C484.525 87.7969 488.717 88.5973 492.606 90.1983C496.496 91.7992 499.576 93.9853 501.847 96.7568L496.079 98.986C494.455 96.9074 492.226 95.2506 489.375 94.0112C486.525 92.7718 483.414 92.1563 480.032 92.1563C474.892 92.1563 470.513 93.4775 466.902 96.1156C463.29 98.758 461.484 101.955 461.484 105.717C461.484 109.478 463.278 112.736 466.865 115.391C470.453 118.046 474.844 119.376 480.026 119.376C484.797 119.376 488.892 118.287 492.323 116.11C495.747 113.932 497.674 111.208 498.091 107.942H480.032V104.675H504.897V105.915C504.807 110.834 502.349 115.021 497.535 118.485C492.715 121.95 486.881 123.684 480.032 123.684L480.038 123.68Z" fill="#141D3E"/>
<path d="M521.436 123.139V88.293H551.447V92.5491H527.832V103.192H549.436V106.708H527.832V118.882H551.447V123.139H521.436Z" fill="#141D3E"/>
<path d="M220.198 24.9977C231.742 24.9977 241.64 29.3906 247.825 36.8596L237.514 45.2537C233.802 40.8608 227.125 37.4725 220.776 37.4725C208.49 37.4725 202.305 45.5601 202.305 53.7272C202.305 61.8943 208.49 69.9025 220.776 69.9025C228.856 69.9025 233.972 66.2078 237.514 61.9681L247.825 70.3623C241.476 77.678 231.578 82.4568 220.119 82.4568C205.276 82.4568 187.875 72.6722 187.875 53.7216C187.875 34.771 205.355 24.9863 220.204 24.9863L220.198 24.9977Z" fill="white"/>
<path d="M309.018 26.7695V37.6325H257.477V26.7695H309.018ZM309.018 48.3366V59.1201H257.477V48.3366H309.018ZM309.018 69.8298V80.6928H257.726V69.8298H309.018Z" fill="white"/>
<path d="M321.051 26.7695H334.989L370.447 64.3586V26.7695H384.3V80.6928H370.447L334.989 43.1037V80.6928H321.051V26.7695Z" fill="white"/>
<path d="M396.664 26.7695H410.602V80.6928H396.664V26.7695Z" fill="white"/>
<path d="M483.415 26.7695V37.5531H458.183V80.6928H444.245V37.4793H419.012V26.7695H483.415Z" fill="white"/>
<path d="M491.826 26.7695H505.764V48.2628H537.595V26.7695H551.448V80.6928H537.595V59.1258H505.764V80.6928H491.826V26.7695Z" fill="white"/>
<path d="M140.431 110.19V87.1113H70.3696C69.0604 87.1113 68 88.09 68 89.2952V110.19C68 116.506 73.5555 121.626 80.4065 121.626H81.0224C81.0589 118.667 83.6834 116.268 86.9026 116.268C90.1218 116.268 92.7448 118.667 92.7827 121.626H115.736C115.772 118.667 118.397 116.268 121.616 116.268C124.835 116.268 127.458 118.667 127.496 121.626H128.024C134.875 121.626 140.432 116.506 140.432 110.19H140.431Z" fill="#141D3E"/>
<path d="M140.489 51.0527V85.5938H70.4282C69.1205 85.5938 68.0586 84.6151 68.0586 83.4099V37.102C68.0586 30.788 73.6156 25.668 80.4666 25.668H113.02C113.81 25.6708 114.593 25.7015 115.367 25.77C129.445 26.8927 140.491 37.7857 140.491 51.0541L140.489 51.0527Z" fill="#141D3E"/>
<path d="M115.612 73.4679C115.508 72.9561 115.203 72.5395 114.821 72.1718C114.384 71.7467 113.862 71.4168 113.298 71.1483C112.442 70.7429 111.537 70.4493 110.619 70.1948C109.797 69.9683 108.962 69.7823 108.114 69.6621C107.758 70.1598 107.395 70.666 107.031 71.1735C107.378 71.2266 107.727 71.2784 108.072 71.3371C108.958 71.4853 109.838 71.6517 110.698 71.9061C111.476 72.134 112.238 72.4025 112.934 72.8009C113.239 72.9757 113.518 73.1798 113.717 73.4609C113.881 73.6972 113.918 73.9502 113.765 74.1977C113.676 74.3417 113.551 74.4703 113.421 74.5878C113.165 74.8129 112.857 74.9681 112.544 75.1149C111.823 75.463 111.066 75.7147 110.288 75.923C109.618 76.1006 108.943 76.2418 108.26 76.3592C107.799 76.4389 107.333 76.5032 106.869 76.5633C106.477 76.6123 106.083 76.6542 105.691 76.692C105.35 76.7255 105.004 76.7535 104.663 76.7759C104.394 76.7954 104.124 76.8052 103.857 76.8178C103.417 76.8374 102.987 76.8667 102.547 76.8695C102.536 76.8695 102.525 76.8695 102.515 76.8695C102.014 76.8765 101.513 76.8765 101.011 76.8625C100.65 76.8542 100.291 76.8388 99.9297 76.815C99.5671 76.7926 99.2091 76.7815 98.8465 76.7507C98.27 76.7046 97.6951 76.6556 97.1186 76.5871C96.5633 76.5214 96.0081 76.4417 95.4559 76.348C94.6822 76.2152 93.9176 76.0432 93.1681 75.8251C92.3383 75.5819 91.5267 75.2868 90.7742 74.8688C90.489 74.7052 90.2235 74.5235 90.046 74.2508C89.914 74.0495 89.8776 73.8412 89.9717 73.6161C90.0506 73.4343 90.178 73.2833 90.3297 73.1533C90.6422 72.8876 91.0018 72.6877 91.3795 72.5199C92.4415 72.0459 93.5565 71.7314 94.7095 71.5216C95.3739 71.3972 96.0415 71.2937 96.7059 71.1805C96.3434 70.6814 95.9732 70.1738 95.6076 69.6635C95.3026 69.7082 95.0038 69.7614 94.7049 69.8187C93.8159 69.9893 92.9436 70.2172 92.091 70.5052C91.3219 70.7625 90.5694 71.0477 89.8807 71.4573C89.3467 71.7761 88.8855 72.162 88.5411 72.6555C87.9646 73.4748 87.9813 74.3962 88.6276 75.1848C88.931 75.5525 89.3027 75.8517 89.7092 76.1145C90.439 76.5843 91.2445 76.9143 92.0804 77.1883C92.9861 77.4833 93.9115 77.7084 94.849 77.8734C95.4255 77.9769 96.002 78.0608 96.5815 78.1405C96.9608 78.1922 97.3401 78.2299 97.7224 78.2691C98.1547 78.3138 98.5871 78.3516 99.0225 78.3865C99.3138 78.4089 99.6065 78.4159 99.8993 78.4285C100.335 78.4466 100.767 78.4774 101.202 78.4802C101.796 78.4844 102.389 78.469 102.98 78.4578C103.285 78.4536 103.59 78.4425 103.891 78.4285C104.4 78.3977 104.912 78.3711 105.418 78.3292C105.855 78.2956 106.286 78.2579 106.719 78.2034C107.397 78.1153 108.079 78.0258 108.756 77.9112C109.636 77.7671 110.504 77.5658 111.352 77.3086C112.279 77.0233 113.166 76.678 113.975 76.1663C114.55 75.8014 115.053 75.3693 115.39 74.7975C115.637 74.3753 115.712 73.932 115.616 73.4623L115.612 73.4679Z" fill="white"/>
<path d="M89.4318 55.7737C89.6654 56.5734 89.9916 57.3438 90.3238 58.1058C90.7152 58.9978 91.1385 59.8702 91.5966 60.7301C92.1883 61.857 92.8224 62.9601 93.4945 64.0493C94.3698 65.4628 95.3013 66.8553 96.2646 68.2213C96.2783 68.2409 96.2934 68.2619 96.3071 68.2814C96.8441 69.042 97.3933 69.7956 97.944 70.5506C98.3157 71.0554 98.6859 71.5615 99.0621 72.0634C99.2274 72.2857 99.3943 72.5066 99.5612 72.7261C100.192 73.5608 100.837 74.3871 101.476 75.2134C101.565 75.3309 101.653 75.4469 101.744 75.5686C101.776 75.6091 101.806 75.6497 101.838 75.6916C101.89 75.6469 101.935 75.6091 101.975 75.57C101.988 75.556 102.004 75.5406 102.016 75.5252C102.139 75.384 102.263 75.2484 102.381 75.103C103.185 74.1047 103.946 73.0771 104.698 72.0453C104.809 71.8943 104.918 71.7419 105.029 71.5909C105.761 70.5828 106.485 69.5691 107.209 68.5583C107.274 68.466 107.341 68.3723 107.407 68.2801C107.741 67.8117 108.076 67.3419 108.4 66.8623C108.929 66.0696 109.448 65.2698 109.971 64.4729C110.646 63.4369 111.297 62.3911 111.893 61.3145C112.289 60.6042 112.663 59.8814 113.018 59.1516C113.688 57.7674 114.219 56.3371 114.551 54.8467C114.745 54.0008 114.841 53.1479 114.873 52.2825C114.882 52.0895 114.856 51.8924 114.856 51.6953C114.847 51.157 114.779 50.6215 114.674 50.0916C114.46 48.9647 114.045 47.8993 113.448 46.901C112.708 45.6609 111.752 44.5717 110.625 43.6112C109.715 42.8422 108.708 42.1977 107.596 41.6915C106.612 41.2455 105.596 40.9268 104.542 40.7324V47.1429C106.332 48.0251 107.624 49.812 107.624 51.8602C107.629 54.7544 104.97 57.197 101.697 57.1131C98.7056 57.0418 96.0538 54.6859 96.1448 51.6296C96.2024 49.6833 97.4661 48.0335 99.191 47.1807V40.7967C99.0955 40.8121 99.0014 40.8303 98.9058 40.8541C97.8484 41.0889 96.8366 41.4371 95.8702 41.8957C95.1739 42.2298 94.5109 42.6087 93.8874 43.0449C93.1835 43.5385 92.5372 44.0964 91.9516 44.7115C91.2644 45.433 90.6894 46.2215 90.2161 47.0702C89.8171 47.7916 89.5122 48.5452 89.2892 49.3282C89.0631 50.1391 88.9387 50.9668 88.9023 51.8015C88.8781 52.4265 88.9114 53.0487 88.9888 53.6708C89.0798 54.3839 89.2315 55.0816 89.4333 55.7723L89.4318 55.7737Z" fill="white"/>
<path d="M152.362 110.189V62.5652C152.362 48.3195 139.008 33.7082 126.182 27.5605C135.273 31.9178 142.073 40.7459 142.073 51.0501V110.189C142.073 115.134 139.048 119.443 134.612 121.624H139.954C146.806 121.624 152.362 116.504 152.362 110.189Z" fill="white"/>
<path d="M154.012 62.5663V85.5923H163.164C164.474 85.5923 165.536 84.6136 165.536 83.407V74.1178C165.536 54.1215 148.529 35.2701 129.766 27.8711C141.964 34.5766 154.012 48.5471 154.012 62.5649V62.5663Z" fill="white"/>
<path d="M166.793 92.0426H165.529V89.2966C165.529 88.09 164.467 87.1113 163.158 87.1113H154.006V110.19C154.006 115.136 150.981 119.445 146.545 121.626H153.121C159.974 121.626 165.529 116.506 165.529 110.19V109.489H166.793C167.459 109.489 167.999 108.992 167.999 108.377V93.1527C167.999 92.5389 167.461 92.0412 166.793 92.0412V92.0426Z" fill="white"/>
<path d="M86.8987 118C84.5351 118 82.613 119.75 82.5781 121.922C82.5781 121.943 82.5781 121.962 82.5781 121.983C82.5781 124.183 84.5139 125.965 86.8987 125.965C89.2835 125.965 91.2193 124.181 91.2193 121.983C91.2193 121.962 91.2193 121.943 91.2193 121.922C91.1859 119.752 89.2623 118 86.8987 118Z" fill="white"/>
<path d="M121.612 117.703C119.248 117.703 117.326 119.454 117.291 121.625C117.291 121.646 117.291 121.665 117.291 121.686C117.291 123.886 119.227 125.668 121.612 125.668C123.996 125.668 125.932 123.884 125.932 121.686C125.932 121.665 125.932 121.646 125.932 121.625C125.899 119.455 123.975 117.703 121.612 117.703Z" fill="white"/>
</svg>
