<svg width="25" height="24" viewBox="0 0 25 24" fill="none" xmlns="http://www.w3.org/2000/svg">
<path d="M12.5 11.7529C12.6364 11.7529 12.7471 11.8636 12.7471 12C12.7471 12.1364 12.6364 12.2471 12.5 12.2471C12.3636 12.2471 12.2529 12.1364 12.2529 12C12.2529 11.8636 12.3636 11.7529 12.5 11.7529Z" fill="#191C1F" stroke="#191C1F" stroke-width="1.75595"/>
<path d="M12.5 5.75293C12.6364 5.75293 12.7471 5.86357 12.7471 6C12.7471 6.13643 12.6364 6.24707 12.5 6.24707C12.3636 6.24707 12.2529 6.13643 12.2529 6C12.2529 5.86357 12.3636 5.75293 12.5 5.75293Z" fill="#191C1F" stroke="#191C1F" stroke-width="1.75595"/>
<path d="M12.5 17.7529C12.6364 17.7529 12.7471 17.8636 12.7471 18C12.7471 18.1364 12.6364 18.2471 12.5 18.2471C12.3636 18.2471 12.2529 18.1364 12.2529 18C12.2529 17.8636 12.3636 17.7529 12.5 17.7529Z" fill="#191C1F" stroke="#191C1F" stroke-width="1.75595"/>
</svg>