<svg width="24" height="24" viewBox="0 0 24 24" fill="none" xmlns="http://www.w3.org/2000/svg">
    <path d="M12 11.7529C12.1364 11.7529 12.2471 11.8636 12.2471 12C12.2471 12.1364 12.1364 12.2471 12 12.2471C11.8636 12.2471 11.7529 12.1364 11.7529 12C11.7529 11.8636 11.8636 11.7529 12 11.7529Z" fill="#191C1F" stroke="#191C1F" stroke-width="1.75595"/>
    <path d="M12 5.75293C12.1364 5.75293 12.2471 5.86357 12.2471 6C12.2471 6.13643 12.1364 6.24707 12 6.24707C11.8636 6.24707 11.7529 6.13643 11.7529 6C11.7529 5.86357 11.8636 5.75293 12 5.75293Z" fill="#191C1F" stroke="#191C1F" stroke-width="1.75595"/>
    <path d="M12 17.7529C12.1364 17.7529 12.2471 17.8636 12.2471 18C12.2471 18.1364 12.1364 18.2471 12 18.2471C11.8636 18.2471 11.7529 18.1364 11.7529 18C11.7529 17.8636 11.8636 17.7529 12 17.7529Z" fill="#191C1F" stroke="#191C1F" stroke-width="1.75595"/>
</svg>
