<svg width="24" height="24" viewBox="0 0 24 24" fill="none" xmlns="http://www.w3.org/2000/svg">
<path opacity="0.4" d="M17.9981 7.16C17.9381 7.15 17.8681 7.15 17.8081 7.16C16.4281 7.11 15.3281 5.98 15.3281 4.58C15.3281 3.15 16.4781 2 17.9081 2C19.3381 2 20.4881 3.16 20.4881 4.58C20.4781 5.98 19.3781 7.11 17.9981 7.16Z" stroke="#40A1E8" stroke-width="1.5" stroke-linecap="round" stroke-linejoin="round"/>
<path opacity="0.4" d="M16.9675 14.4402C18.3375 14.6702 19.8475 14.4302 20.9075 13.7202C22.3175 12.7802 22.3175 11.2402 20.9075 10.3002C19.8375 9.59016 18.3075 9.35016 16.9375 9.59016" stroke="#40A1E8" stroke-width="1.5" stroke-linecap="round" stroke-linejoin="round"/>
<path opacity="0.4" d="M5.96754 7.16C6.02754 7.15 6.09754 7.15 6.15754 7.16C7.53754 7.11 8.63754 5.98 8.63754 4.58C8.63754 3.15 7.48754 2 6.05754 2C4.62754 2 3.47754 3.16 3.47754 4.58C3.48754 5.98 4.58754 7.11 5.96754 7.16Z" stroke="#40A1E8" stroke-width="1.5" stroke-linecap="round" stroke-linejoin="round"/>
<path opacity="0.4" d="M6.9975 14.4402C5.6275 14.6702 4.1175 14.4302 3.0575 13.7202C1.6475 12.7802 1.6475 11.2402 3.0575 10.3002C4.1275 9.59016 5.6575 9.35016 7.0275 9.59016" stroke="#40A1E8" stroke-width="1.5" stroke-linecap="round" stroke-linejoin="round"/>
<path d="M12.0001 14.6297C11.9401 14.6197 11.8701 14.6197 11.8101 14.6297C10.4301 14.5797 9.33008 13.4497 9.33008 12.0497C9.33008 10.6197 10.4801 9.46973 11.9101 9.46973C13.3401 9.46973 14.4901 10.6297 14.4901 12.0497C14.4801 13.4497 13.3801 14.5897 12.0001 14.6297Z" stroke="#40A1E8" stroke-width="1.5" stroke-linecap="round" stroke-linejoin="round"/>
<path d="M9.08973 17.7794C7.67973 18.7194 7.67973 20.2594 9.08973 21.1994C10.6897 22.2694 13.3097 22.2694 14.9097 21.1994C16.3197 20.2594 16.3197 18.7194 14.9097 17.7794C13.3197 16.7194 10.6897 16.7194 9.08973 17.7794Z" stroke="#40A1E8" stroke-width="1.5" stroke-linecap="round" stroke-linejoin="round"/>
</svg>
