<svg width="24" height="24" viewBox="0 0 24 24" fill="none" xmlns="http://www.w3.org/2000/svg">
<path d="M12 21C16.9706 21 21 16.9706 21 12C21 7.02944 16.9706 3 12 3C7.02944 3 3 7.02944 3 12C3 16.9706 7.02944 21 12 21Z" stroke="#0082E0" stroke-width="1.5" stroke-linecap="round" stroke-linejoin="round"/>
<path d="M4.65039 17.1941L5.74727 16.5285C5.85605 16.4614 5.94587 16.3676 6.00822 16.2561C6.07057 16.1445 6.10337 16.0188 6.10352 15.891L6.12227 12.5066C6.12376 12.3663 6.16611 12.2295 6.24414 12.1129L8.10039 9.19727C8.15609 9.11112 8.22867 9.03716 8.31374 8.97984C8.39882 8.92252 8.49462 8.88303 8.59538 8.86376C8.69613 8.84448 8.79975 8.84582 8.89997 8.86769C9.0002 8.88956 9.09495 8.93152 9.17852 8.99102L11.016 10.3223C11.1746 10.4328 11.3675 10.4827 11.5598 10.4629L14.5129 10.0598C14.692 10.0351 14.8557 9.94492 14.9723 9.80664L17.0535 7.40664C17.1769 7.26034 17.2406 7.07284 17.2316 6.88164L17.1285 4.60352" stroke="#0082E0" stroke-width="1.5" stroke-linecap="round" stroke-linejoin="round"/>
<path d="M17.5407 19.0969L16.5282 18.0844C16.4345 17.9908 16.3183 17.9229 16.1907 17.8875L14.1751 17.3625C13.998 17.314 13.8449 17.2023 13.7447 17.0486C13.6445 16.8948 13.6041 16.7096 13.6313 16.5281L13.8469 15.0094C13.8683 14.8816 13.9217 14.7614 14.002 14.6597C14.0823 14.5581 14.187 14.4784 14.3063 14.4281L17.1563 13.2375C17.2887 13.1823 17.4341 13.1662 17.5753 13.1911C17.7166 13.216 17.8477 13.2809 17.9532 13.3781L20.2876 15.5156" stroke="#0082E0" stroke-width="1.5" stroke-linecap="round" stroke-linejoin="round"/>
</svg>
